<?xml version="1.0" standalone="no"?>
<!DOCTYPE svg PUBLIC "-//W3C//DTD SVG 20010904//EN"
 "http://www.w3.org/TR/2001/REC-SVG-20010904/DTD/svg10.dtd">
<svg version="1.0" xmlns="http://www.w3.org/2000/svg"
 width="700.000000pt" height="700.000000pt" viewBox="0 0 700.000000 700.000000"
 preserveAspectRatio="xMidYMid meet">
<metadata>
Created by potrace 1.14, written by Peter Selinger 2001-2017
</metadata>
<g transform="translate(0.000000,700.000000) scale(0.100000,-0.100000)"
fill="#000000" stroke="none">
<path d="M1065 6984 c-117 -20 -261 -68 -366 -121 -52 -25 -98 -50 -104 -54
-5 -5 -47 -36 -91 -69 -206 -152 -366 -379 -444 -630 -56 -181 -58 -201 -59
-888 -1 -602 -1 -635 17 -676 13 -28 33 -51 58 -67 36 -22 49 -24 169 -23 169
0 218 15 296 93 96 96 93 77 95 701 0 294 4 555 8 580 42 272 274 496 544 527
76 9 2369 8 2499 0 539 -37 1052 -220 1480 -530 382 -277 689 -634 885 -1032
32 -66 63 -128 69 -138 35 -64 162 -448 174 -527 2 -14 8 -50 14 -80 17 -84
18 -91 26 -150 4 -30 9 -63 11 -73 21 -114 21 -488 -1 -652 -2 -16 -7 -52 -10
-79 -3 -27 -8 -52 -9 -55 -2 -3 -7 -26 -10 -51 -9 -68 -61 -273 -95 -377 -107
-320 -261 -606 -479 -883 -91 -115 -336 -361 -452 -453 -407 -323 -900 -539
-1385 -607 -44 -6 -93 -13 -110 -15 -16 -3 -79 -8 -140 -12 -145 -8 -2404 -8
-2473 0 -70 9 -160 40 -230 79 -86 48 -199 168 -244 258 -70 142 -71 150 -72
760 -1 300 -5 556 -10 570 -21 63 -43 99 -90 145 -75 73 -128 89 -292 89 -151
0 -182 -12 -223 -84 l-22 -40 4 -668 c4 -730 2 -700 68 -895 143 -429 512
-745 979 -839 52 -10 329 -13 1340 -13 701 0 1316 3 1365 7 117 9 295 34 415
59 52 11 106 23 120 25 82 16 396 114 475 149 17 7 82 36 146 64 932 406 1663
1238 1950 2219 38 131 91 376 103 477 7 59 15 118 22 160 9 54 11 528 3 610
-15 165 -21 220 -24 225 -2 3 -6 30 -10 60 -3 30 -10 71 -15 90 -5 19 -12 51
-15 70 -13 75 -67 275 -106 392 -348 1037 -1165 1855 -2204 2206 -167 56 -419
119 -555 137 -19 3 -46 7 -60 10 -13 2 -54 7 -90 11 -36 3 -78 9 -95 12 -16 3
-624 7 -1350 8 -1100 2 -1333 0 -1400 -12z"/>
<path d="M1508 5715 c-90 -23 -162 -84 -206 -175 l-27 -55 -2 -450 c-1 -487
-1 -487 53 -536 45 -41 75 -46 274 -44 209 1 236 8 280 72 25 36 25 41 30 281
5 243 5 244 29 263 24 19 44 20 890 16 476 -2 884 -7 906 -11 442 -83 789
-291 1040 -625 142 -190 267 -481 292 -681 3 -25 9 -65 13 -90 9 -49 6 -341
-4 -405 -65 -402 -263 -747 -571 -999 -86 -70 -77 -63 -156 -113 -189 -119
-385 -193 -634 -239 -48 -9 -1696 -18 -1743 -9 -58 11 -61 25 -62 281 -1 215
-3 233 -22 265 -46 76 -82 86 -308 84 -207 -1 -223 -5 -274 -68 l-31 -39 0
-461 0 -462 26 -55 c33 -70 84 -121 157 -157 l57 -28 1040 0 c572 0 1078 4
1125 8 434 38 868 214 1215 491 136 110 310 294 433 461 79 107 200 337 255
486 95 254 137 472 141 744 4 196 -19 405 -60 562 -9 32 -17 65 -19 73 -10 43
-58 186 -66 194 -5 6 -9 17 -9 25 0 25 -134 291 -190 376 -105 160 -192 265
-332 405 -54 54 -75 72 -178 156 -241 197 -648 382 -940 429 -19 3 -57 10 -85
15 -27 5 -70 12 -95 16 -25 4 -529 8 -1120 9 -817 2 -1086 0 -1122 -10z"/>
<path d="M115 3812 c-33 -7 -81 -49 -99 -85 -13 -29 -16 -69 -16 -219 0 -100
5 -199 10 -219 12 -42 52 -82 97 -97 47 -16 3382 -16 3455 -1 100 22 181 86
226 179 22 45 26 69 26 130 -1 132 -65 232 -184 289 l-55 26 -1720 1 c-946 0
-1729 -1 -1740 -4z"/>
</g>
</svg>
